<?xml version="1.0" encoding="utf-8"?>
<!-- Generator: Adobe Illustrator 22.0.0, SVG Export Plug-In . SVG Version: 6.00 Build 0)  -->
<!DOCTYPE svg PUBLIC "-//W3C//DTD SVG 1.1//EN" "http://www.w3.org/Graphics/SVG/1.1/DTD/svg11.dtd">
<svg version="1.1"
	 id="Layer_1" inkscape:version="0.48.1 " sodipodi:docname="20111009182803!Apple_Computer_Logo_rainbow.svg" xmlns:cc="http://creativecommons.org/ns#" xmlns:dc="http://purl.org/dc/elements/1.1/" xmlns:inkscape="http://www.inkscape.org/namespaces/inkscape" xmlns:rdf="http://www.w3.org/1999/02/22-rdf-syntax-ns#" xmlns:sodipodi="http://sodipodi.sourceforge.net/DTD/sodipodi-0.dtd" xmlns:svg="http://www.w3.org/2000/svg"
	 xmlns="http://www.w3.org/2000/svg" xmlns:xlink="http://www.w3.org/1999/xlink" x="0px" y="0px" viewBox="0 0 500 550"
	 style="enable-background:new 0 0 500 550;" xml:space="preserve">
<style type="text/css">
	.st0{fill:#009DDC;stroke:#009DDC;stroke-width:2.9849;stroke-miterlimit:2.6131;}
	.st1{fill:#FDB827;}
	.st2{fill:#963D97;stroke:#963D97;stroke-width:2.9849;stroke-miterlimit:2.6131;}
	.st3{fill:#61BB46;stroke:#61BB46;stroke-width:2.9849;stroke-miterlimit:2.6131;}
	.st4{fill:#E03A3E;stroke:#E03A3E;stroke-width:2.9849;stroke-miterlimit:2.6131;}
	.st5{fill:none;stroke:#000000;stroke-width:3.8948;stroke-miterlimit:2.6131;}
	.st6{fill:#F5821F;stroke:#F5821F;stroke-width:2.9849;stroke-miterlimit:2.6131;}
</style>
<sodipodi:namedview  bordercolor="#666666" borderopacity="1" gridtolerance="10" guidetolerance="10" id="namedview21" inkscape:current-layer="Layer_1" inkscape:cx="249.76199" inkscape:cy="277.27301" inkscape:guide-bbox="true" inkscape:pageopacity="0" inkscape:pageshadow="2" inkscape:window-height="738" inkscape:window-maximized="1" inkscape:window-width="1280" inkscape:window-x="-8" inkscape:window-y="-8" inkscape:zoom="0.93590068" objecttolerance="10" pagecolor="#ffffff" showgrid="false" showguides="true">
	</sodipodi:namedview>
<g id="g3_1_" transform="matrix(0.9869271,0,0,0.99106002,3.5008005,0.90716963)">
	<path id="path7_1_" inkscape:connector-curvature="0" class="st0" d="M319.5,90.9c18-23.2,31.7-55.9,26.8-89.3
		c-29.5,2-64,20.8-84.1,45.2c-18.3,22.2-33.4,55.1-27.5,87.1C266.9,134.9,300.2,115.7,319.5,90.9L319.5,90.9L319.5,90.9z"/>
	<path id="path9_1_" inkscape:connector-curvature="0" sodipodi:nodetypes="ccccccc" class="st1" d="M29.1,200
		c-12.3,19.2-20.7,46.7-23,70.8l395.9,0c4.3-26.4,20.1-51.6,42.8-70.8L29.1,200L29.1,200L29.1,200z"/>
	<path id="path11_1_" inkscape:connector-curvature="0" class="st2" d="M9.7,341c-3.9-24.6-4.5-48.4-2.1-70.2l394.3,0
		c-3.9,23.6-0.6,48.2,9.1,70.2L9.7,341L9.7,341L9.7,341z"/>
	<path id="path13_1_" inkscape:connector-curvature="0" class="st3" d="M29,411.2c-9.3-23.6-15.7-47.3-19.3-70.2l401.4,0
		c12.4,28,35.4,51.8,67.8,64.1c-1,2.1-1.9,4.2-2.8,6.2L29,411.2L29,411.2L29,411.2z"/>
	<path id="path15_1_" inkscape:connector-curvature="0" class="st4" d="M476.2,411.2c-11.1,24.4-17.6,37.1-32.9,60.5
		c-2.1,3.1-4.2,6.4-6.4,9.6l-370.5,0c-1.2-1.8-2.4-3.5-3.5-5.3c-13.9-21.1-25.1-43-33.7-64.9L476.2,411.2L476.2,411.2z"/>
	<path id="path17_1_" inkscape:connector-curvature="0" class="st5" d="M477.7,550.8c13.6,0,24.6-11,24.6-24.6
		c0-13.6-11-24.6-24.6-24.6s-24.6,11-24.6,24.6C453.1,539.8,464.1,550.8,477.7,550.8 M470.7,541.1v-27.5h11 M488.4,540.8l-6.6-13.9
		 M470.8,526.7h11 M481.8,526.7c2.7,0,5.5-2.9,5.5-6.5c0-3.8-2.9-6.6-5.5-6.6"/>
	<path id="path19_1_" inkscape:connector-curvature="0" class="st6" d="M436.8,481.4c-22.7,33.2-53.1,69.7-90,70.1
		c-36,0.3-45.3-23.4-94.2-23.2c-48.9,0.3-59.1,23.6-95.1,23.3c-38.5-0.4-68.4-36.2-91.2-70.1L436.8,481.4L436.8,481.4z"/>
	<path id="path5_1_" inkscape:connector-curvature="0" class="st0" d="M29.1,200c0.2-0.3,0.3-0.5,0.5-0.8
		c28.4-43.8,73.3-69.4,115.5-69.4c43,0,70,23.6,105.5,23.6c34.5,0,55.5-23.6,105.1-23.6c37.5,0,81.9,20.4,110.3,55.8
		c-7.8,4.3-14.9,9.2-21.2,14.5L29.1,200L29.1,200L29.1,200z"/>
</g>
</svg>
