<?xml version="1.0" encoding="utf-8"?>
<!-- Generator: Adobe Illustrator 22.0.0, SVG Export Plug-In . SVG Version: 6.00 Build 0)  -->
<!DOCTYPE svg PUBLIC "-//W3C//DTD SVG 1.1//EN" "http://www.w3.org/Graphics/SVG/1.1/DTD/svg11.dtd">
<svg version="1.1"
	 id="Layer_1" inkscape:version="0.48.1 " sodipodi:docname="20111009182803!Apple_Computer_Logo_rainbow.svg" xmlns:cc="http://creativecommons.org/ns#" xmlns:dc="http://purl.org/dc/elements/1.1/" xmlns:inkscape="http://www.inkscape.org/namespaces/inkscape" xmlns:rdf="http://www.w3.org/1999/02/22-rdf-syntax-ns#" xmlns:sodipodi="http://sodipodi.sourceforge.net/DTD/sodipodi-0.dtd" xmlns:svg="http://www.w3.org/2000/svg"
	 xmlns="http://www.w3.org/2000/svg" xmlns:xlink="http://www.w3.org/1999/xlink" x="0px" y="0px" viewBox="0 0 500 550"
	 style="enable-background:new 0 0 500 550;" xml:space="preserve">
<style type="text/css">
	.st0{fill:#20201E;}
	.st1{fill:none;stroke:#000000;stroke-width:3.8948;stroke-miterlimit:2.6131;}
</style>
<sodipodi:namedview  bordercolor="#666666" borderopacity="1" gridtolerance="10" guidetolerance="10" id="namedview21" inkscape:current-layer="Layer_1" inkscape:cx="249.76199" inkscape:cy="277.27301" inkscape:guide-bbox="true" inkscape:pageopacity="0" inkscape:pageshadow="2" inkscape:window-height="738" inkscape:window-maximized="1" inkscape:window-width="1280" inkscape:window-x="-8" inkscape:window-y="-8" inkscape:zoom="0.93590068" objecttolerance="10" pagecolor="#ffffff" showgrid="false" showguides="true">
	</sodipodi:namedview>
<path id="path7_1_" inkscape:connector-curvature="0" class="st0" d="M178.3,91L178.3,91c19.1,24.6,51.9,43.6,83.7,42.6
	c5.8-31.7-9.1-64.3-27.1-86.3C215,23.1,181,4.5,151.9,2.5C147,35.6,160.5,68,178.3,91L178.3,91z"/>
<path id="path17_1_" inkscape:connector-curvature="0" class="st1" d="M475,546.8c13.4,0,24.3-10.9,24.3-24.4
	c0-13.5-10.9-24.4-24.3-24.4s-24.3,10.9-24.3,24.4C450.7,535.8,461.5,546.8,475,546.8 M468.1,537.2V510h10.9 M485.5,536.9l-6.5-13.8
	 M468.1,522.9H479 M479,522.9c2.7,0,5.4-2.9,5.4-6.4c0-3.8-2.8-6.5-5.5-6.5"/>
<path class="st0" d="M397.4,288.9c0-48.4,25.3-89.7,60.9-106c-27.8-33.5-66.1-52.8-102.3-52.8c-49,0-69.7,23.4-103.8,23.4
	c-35.1,0-61.7-23.3-104.1-23.3c-41.6,0-85.9,25.4-114,68.8c-0.2,0.3-0.3,0.5-0.5,0.8c0,0-20.6,38.2-22.6,69.6
	c-2.4,21.6-1.8,45.1,2,69.6c3.5,22.7,9.8,46.2,19,69.6h0c8.6,21.8,19.6,43.4,33.3,64.4c1.1,1.7,2.3,3.4,3.4,5.1h0
	c22.5,33.6,52.1,69.2,90.1,69.6c35.6,0.3,45.6-22.8,93.9-23c48.2-0.3,57.4,23.3,92.9,23c36.3-0.3,66.5-36.6,88.8-69.5h0
	c2.2-3.2,4.3-6.4,6.4-9.5c15.2-23.2,21.5-35.8,32.5-60h0c0.9-2,1.8-4,2.7-6.1c-3.3-1.3-6.5-2.6-9.6-4.1
	C426.7,384.8,397.4,341,397.4,288.9z"/>
</svg>
