<?xml version="1.0" encoding="utf-8"?>
<!-- Generator: Adobe Illustrator 22.0.0, SVG Export Plug-In . SVG Version: 6.00 Build 0)  -->
<!DOCTYPE svg PUBLIC "-//W3C//DTD SVG 1.1//EN" "http://www.w3.org/Graphics/SVG/1.1/DTD/svg11.dtd">
<svg version="1.1" id="Layer_1" xmlns="http://www.w3.org/2000/svg" xmlns:xlink="http://www.w3.org/1999/xlink" x="0px" y="0px"
	 viewBox="0 0 610 550" style="enable-background:new 0 0 610 550;" xml:space="preserve">
<style type="text/css">
	.st0{fill:#FFFFFF;}
</style>
<g>
	<g>
		<path class="st0" d="M437.5,24c-34.2,0-59.9,20.9-59.9,45.4c0,24.4,25.7,43.1,59.9,43.1c0.9,0,1.7-0.1,2.6-0.1V24.1
			C439.2,24.1,438.4,24,437.5,24 M273.5,2.2h-81.7c-9,0-16.3,7.3-16.3,16.3v231.8c0,9.1,7.3,16.3,16.3,16.3h105.7
			c-46.1-46.1-74-103.2-74-152.6C223.7,73.9,242,34.9,273.5,2.2 M368.7,66.6c0-28.5,23.4-52.9,57.3-64.2h0c-0.1,0-0.1,0-0.2,0
			c-0.7-0.1-1.4-0.2-2.2-0.2H420c-2.2,0-4.5-0.1-6.7-0.1c-2.2,0-4.5,0.1-6.7,0.1C313,4.6,233.5,55.7,233.5,118.4
			c0,64.2,83.3,116.3,179.8,116.3c9.1,0,18-0.5,26.7-1.3v-76.7C398.8,142.1,368.7,98.9,368.7,66.6"/>
		<path class="st0" d="M60.4,465.8c-5.3,5.3-14.2,8.9-23.1,8.9s-17.8-3.5-23.1-8.9C8.5,460.3,5,452.6,5,440.2v-65.3
			c0-12.5,3.5-20.1,9.1-25.7c5.3-5.3,14.2-8.9,23.1-8.9s17.8,3.5,23.1,8.9c5.6,5.6,9.1,13.2,9.1,25.2v2.3H55.3v-2.5
			c0-13.7-7.9-21.1-18-21.1c-9.9,0-18,6.9-18,21.1v66.8c0,14.2,8.1,21.1,18,21.1c10.2,0,18-7.4,18-21.1v-2.3h14.2v2.3
			C69.5,452.9,66,460.3,60.4,465.8"/>
		<path class="st0" d="M135.1,374.1c0-14.2-8.1-21.1-18.1-21.1c-9.9,0-18,6.9-18,21.1v66.8c0,14.2,8.1,21.1,18,21.1
			c9.9,0,18.1-6.9,18.1-21.1V374.1z M140.2,465.8c-5.3,5.3-14.2,8.9-23.1,8.9c-8.9,0-17.8-3.5-23.1-8.9c-5.6-5.6-9.2-13.2-9.2-25.7
			v-65.3c0-12.5,3.6-20.1,9.2-25.7c5.3-5.3,14.2-8.9,23.1-8.9c8.9,0,17.8,3.5,23.1,8.9c5.6,5.6,9.1,13.2,9.1,25.7v65.3
			C149.3,452.6,145.8,460.3,140.2,465.8"/>
		<path class="st0" d="M222.3,472.7v-98.6c0-14.2-8.1-21.1-18-21.1c-9.9,0-17.8,6.9-17.8,21.1v98.6h-14.2V342.3h14v10.4
			c1.5-2.8,4.8-6.4,7.1-7.9c4.1-2.8,8.9-4.6,14.7-4.6c8.6,0,15.2,3.3,20.6,8.9c5.1,5.3,7.9,12.4,7.9,25.4v98.1H222.3z"/>
		<path class="st0" d="M313.3,465.8c-5.3,5.3-14.2,8.9-23.1,8.9c-8.9,0-17.8-3.5-23.1-8.9c-5.6-5.6-9.1-13.2-9.1-25.7v-65.3
			c0-12.5,3.5-20.1,9.1-25.7c5.3-5.3,14.2-8.9,23.1-8.9c8.9,0,17.8,3.5,23.1,8.9c5.6,5.6,9.1,13.2,9.1,25.2v2.3h-14.2v-2.5
			c0-13.7-7.9-21.1-18.1-21.1c-9.9,0-18,6.9-18,21.1v66.8c0,14.2,8.1,21.1,18,21.1c10.2,0,18.1-7.4,18.1-21.1v-2.3h14.2v2.3
			C322.4,452.9,318.8,460.3,313.3,465.8"/>
		<path class="st0" d="M388,374.3c0-14-7.6-21.4-18-21.4c-9.9,0-18.1,6.9-18.1,21.1v24.1H388V374.3z M393.1,465.8
			c-5.4,5.3-14.2,8.9-23.1,8.9c-8.9,0-17.8-3.5-23.1-8.9c-5.6-5.6-9.2-13.2-9.2-25.7v-65.3c0-12.5,3.5-20.1,9.2-25.7
			c5.3-5.3,14.2-8.9,23.1-8.9c8.9,0,17.8,3.5,23.1,8.9c5.6,5.6,9.1,13.2,9.1,25.7v35.1h-50.3v31c0,14.2,8.1,21.1,18.1,21.1
			c10.4,0,18-7.6,18-21.4v-2h14.2v2C402.2,452.6,398.7,460.3,393.1,465.8"/>
		<path class="st0" d="M463,353.7c-15.2,0-24.9,10-24.9,25.3v93.8h-14.2V342.3h14V356c1.3-2.8,4.1-6.1,6.1-7.9
			c5.8-5.3,13.7-6.2,22.4-6.2v11.7H463z"/>
		<path class="st0" d="M520.4,472.7c-20.3,0-32.5-11.4-32.5-33v-85.9h-15.8v-11.4h15.8v-38.1h14.2v38.1h22.1v11.4h-22.1v86.1
			c0,13.2,7.6,20.1,19.3,20.1h3.8v12.7H520.4z"/>
		<path class="st0" d="M590.8,374.1c0-14.2-8.1-21.1-18.1-21.1c-9.9,0-18,6.9-18,21.1v66.8c0,14.2,8.1,21.1,18,21.1
			c9.9,0,18.1-6.9,18.1-21.1V374.1z M595.8,465.8c-5.3,5.3-14.2,8.9-23.1,8.9c-8.9,0-17.8-3.5-23.1-8.9c-5.6-5.6-9.1-13.2-9.1-25.7
			v-65.3c0-12.5,3.5-20.1,9.1-25.7c5.3-5.3,14.2-8.9,23.1-8.9c8.9,0,17.8,3.5,23.1,8.9c5.6,5.6,9.2,13.2,9.2,25.7v65.3
			C605,452.6,601.4,460.3,595.8,465.8"/>
		<path class="st0" d="M21.6,538.1c-6.6,0-9.7-5.1-9.7-11.2c0-6.1,3.1-11.2,9.7-11.2c3.1,0,5.1,1,7.2,3.2l-2.2,2.1
			c-1.4-1.6-2.8-2.4-5-2.4c-2,0-3.9,0.8-5.1,2.5c-1.2,1.7-1.4,3.8-1.4,5.9c0,2.1,0.2,4.2,1.4,5.9c1.2,1.7,3.1,2.5,5.1,2.5
			c2.2,0,3.6-0.9,5-2.5l2.2,2.1C26.7,537.2,24.7,538.1,21.6,538.1"/>
		<path class="st0" d="M53.9,520.2c-1-1.1-2.5-1.6-4-1.6c-1.5,0-2.9,0.5-3.9,1.6c-1.7,1.7-1.8,4.4-1.8,6.7c0,2.3,0.1,5,1.8,6.8
			c1,1.1,2.5,1.6,3.9,1.6c1.5,0,3-0.5,4-1.6c1.7-1.7,1.7-4.5,1.7-6.8C55.7,524.7,55.6,521.9,53.9,520.2 M56.2,535.7
			c-1.6,1.7-4,2.5-6.3,2.5c-2.3,0-4.6-0.8-6.2-2.5c-2.3-2.3-2.7-5.6-2.7-8.7c0-3.1,0.4-6.4,2.7-8.7c1.6-1.7,4-2.5,6.2-2.5
			c2.3,0,4.6,0.8,6.3,2.5c2.3,2.3,2.7,5.6,2.7,8.7C58.9,530.1,58.5,533.3,56.2,535.7"/>
		<path class="st0" d="M101.1,537.9v-13.4c0-3.5-1.7-5.8-5.4-5.8c-3.3,0-5.5,2.2-5.5,5.5v13.8H87v-13.4c0-3.5-1.7-5.8-5.4-5.8
			c-3.6,0-5.5,2.4-5.5,5.8v13.4H73V516h3.2v2.4c1.6-1.8,3.8-2.7,6.2-2.7c2.8,0,5.3,1.2,6.7,3.6c1.7-2.4,4.3-3.6,7.2-3.6
			c4.9,0,8,3.3,8,8.1v14H101.1z"/>
		<path class="st0" d="M147.4,537.9v-13.4c0-3.5-1.7-5.8-5.4-5.8c-3.3,0-5.4,2.2-5.4,5.5v13.8h-3.2v-13.4c0-3.5-1.7-5.8-5.4-5.8
			c-3.6,0-5.5,2.4-5.5,5.8v13.4h-3.2V516h3.2v2.4c1.6-1.8,3.8-2.7,6.2-2.7c2.8,0,5.3,1.2,6.7,3.6c1.7-2.4,4.3-3.6,7.2-3.6
			c4.9,0,8,3.3,8,8.1v14H147.4z"/>
		<path class="st0" d="M179.3,537.9v-2.4c-1.5,1.8-3.8,2.7-6.2,2.7c-5.1,0-7.9-3.2-7.9-8.2V516h3.2v13.4c0,3.5,1.7,5.8,5.3,5.8
			c3.6,0,5.5-2.3,5.5-5.8V516h3.2v21.8H179.3z"/>
		<path class="st0" d="M211.8,537.9v-13.4c0-3.5-1.7-5.8-5.4-5.8c-3.6,0-5.4,2.4-5.4,5.8v13.4h-3.2V516h3.2v2.4
			c1.6-1.8,3.8-2.7,6.1-2.7c5,0,7.9,3.3,7.9,8.1v14H211.8z"/>
		<path class="st0" d="M233.3,516h-3.2v21.8h3.2V516z M233.9,507.8c0-1.2-1.1-2.2-2.2-2.2c-1.2,0-2.2,1-2.2,2.2c0,1.2,1,2.2,2.2,2.2
			C232.8,510,233.9,509,233.9,507.8"/>
		<path class="st0" d="M256.9,538.1c-6.6,0-9.7-5.1-9.7-11.2c0-6.1,3.1-11.2,9.7-11.2c3.1,0,5.1,1,7.2,3.2l-2.2,2.1
			c-1.4-1.6-2.8-2.4-5-2.4c-2,0-3.9,0.8-5.1,2.5c-1.2,1.7-1.4,3.8-1.4,5.9c0,2.1,0.2,4.2,1.4,5.9c1.2,1.7,3.1,2.5,5.1,2.5
			c2.2,0,3.6-0.9,5-2.5l2.2,2.1C262,537.2,260,538.1,256.9,538.1"/>
		<path class="st0" d="M289.8,527.8h-6.1c-2.6,0-4.9,0.9-4.9,3.9c0,3.1,2.4,3.7,5,3.7c3.8,0,6-1.1,6-5.2V527.8z M289.8,537.9v-2.1
			c-1.9,1.9-3.7,2.4-6.3,2.4c-4.3,0-7.8-1.6-7.8-6.4c0-4.5,3.5-6.3,7.5-6.3h6.6v-2.1c0-3.7-2.2-4.8-5.6-4.8c-2.4,0-4.1,0.5-5.5,2.5
			l-2.2-2c2-2.7,4.5-3.2,7.7-3.2c4.9,0,8.7,1.8,8.7,7.3v14.8H289.8z"/>
		<path class="st0" d="M316.1,537.9v-2.8c-2.6,0-4.7,0.1-4.7-3.2v-13.3h4.7v-2.4h-4.7v-6.8h-3.2v6.8h-2.8v2.4h2.8V532
			c0,3.4,2.1,5.9,5.6,5.9H316.1z"/>
		<path class="st0" d="M333,516h-3.2v21.8h3.2V516z M333.6,507.8c0-1.2-1.1-2.2-2.2-2.2c-1.2,0-2.2,1-2.2,2.2c0,1.2,1,2.2,2.2,2.2
			C332.5,510,333.6,509,333.6,507.8"/>
		<path class="st0" d="M360,520.2c-1-1.1-2.5-1.6-4-1.6s-2.9,0.5-4,1.6c-1.7,1.7-1.8,4.4-1.8,6.7c0,2.3,0.1,5,1.8,6.8
			c1,1.1,2.5,1.6,4,1.6s3-0.5,4-1.6c1.7-1.7,1.7-4.5,1.7-6.8C361.7,524.7,361.7,521.9,360,520.2 M362.2,535.7
			c-1.7,1.7-4,2.5-6.3,2.5c-2.3,0-4.6-0.8-6.3-2.5c-2.2-2.3-2.6-5.6-2.6-8.7c0-3.1,0.4-6.4,2.6-8.7c1.7-1.7,4-2.5,6.3-2.5
			c2.3,0,4.6,0.8,6.3,2.5c2.2,2.3,2.6,5.6,2.6,8.7C364.9,530.1,364.5,533.3,362.2,535.7"/>
		<path class="st0" d="M393,537.9v-13.4c0-3.5-1.7-5.8-5.4-5.8c-3.6,0-5.4,2.4-5.4,5.8v13.4H379V516h3.2v2.4
			c1.5-1.8,3.8-2.7,6.1-2.7c5,0,7.9,3.3,7.9,8.1v14H393z"/>
		<path class="st0" d="M442.1,527.8H436c-2.6,0-4.9,0.9-4.9,3.9c0,3.1,2.4,3.7,5,3.7c3.8,0,6-1.1,6-5.2V527.8z M442.1,537.9v-2.1
			c-1.9,1.9-3.7,2.4-6.3,2.4c-4.3,0-7.8-1.6-7.8-6.4c0-4.5,3.5-6.3,7.6-6.3h6.6v-2.1c0-3.7-2.2-4.8-5.6-4.8c-2.4,0-4.1,0.5-5.5,2.5
			l-2.2-2c2-2.7,4.5-3.2,7.7-3.2c4.9,0,8.7,1.8,8.7,7.3v14.8H442.1z"/>
		<path class="st0" d="M467.9,518.6c-4.8,0-5.5,4.3-5.5,8.2c0,3.9,0.6,8.2,5.5,8.2c4.9,0,5.4-4.3,5.4-8.2
			C473.3,522.9,472.8,518.6,467.9,518.6 M467.4,547.9c-3.1,0-5.2-0.8-7.4-2.9l2.1-2c1.6,1.5,3,2.2,5.2,2.2c4.1,0,6-2.9,6-6.7V535
			c-1.6,2-3.6,2.8-6.1,2.8c-6.5,0-8-5.6-8-11c0-5.5,1.4-11,8-11c2.6,0,4.5,0.7,6.1,2.8V516h3.2v22.5
			C476.5,544,473,547.9,467.4,547.9"/>
		<path class="st0" d="M505.3,525.4h-11.5c0-1.2,0.2-2.5,0.7-3.6c0.9-2,2.9-3.3,5.1-3.3c2.2,0,4.2,1.2,5.1,3.3
			C505.1,522.9,505.3,524.2,505.3,525.4 M508.5,527.8v-1.5c0-5.7-2.7-10.6-9-10.6c-6.5,0-9,5.5-9,11.2c0,6.3,2.6,11.2,9.5,11.2
			c3.3,0,5.6-1,8-3.4l-2.2-1.9c-1.7,1.7-3.4,2.5-5.7,2.5c-4.5,0-6.4-3.3-6.4-7.5v-0.1H508.5z"/>
		<path class="st0" d="M536.4,537.9v-13.4c0-3.5-1.7-5.8-5.4-5.8c-3.6,0-5.4,2.4-5.4,5.8v13.4h-3.2V516h3.2v2.4
			c1.5-1.8,3.8-2.7,6.1-2.7c5,0,7.9,3.3,7.9,8.1v14H536.4z"/>
		<path class="st0" d="M570.3,534.9l-2.2-2.1c-1.4,1.6-2.8,2.5-5,2.5c-2,0-3.9-0.8-5.1-2.5c-1.2-1.7-1.4-3.8-1.4-5.9
			c0-2,0.2-4.2,1.4-5.9c1.2-1.6,3.1-2.5,5.1-2.5c2.2,0,3.6,0.8,5,2.4l2.2-2c-2.1-2.3-4.1-3.2-7.2-3.2c-6.6,0-9.7,5.1-9.7,11.2
			c0,6.1,3.1,11.2,9.7,11.2C566.2,538.1,568.2,537.2,570.3,534.9"/>
		<path class="st0" d="M589.1,543.2c-1,2.8-2.9,4.1-5.8,4.1h-1.4v-2.8h0.5c2.6,0,3.1-0.4,4-2.7c0.6-1.4,1-2.8,1.6-4.3l-7.9-21.4h3.5
			l6,17.5l5.9-17.5h3.5L589.1,543.2z"/>
	</g>
</g>
</svg>
