<?xml version="1.0" encoding="utf-8"?>
<!-- Generator: Adobe Illustrator 22.0.0, SVG Export Plug-In . SVG Version: 6.00 Build 0)  -->
<!DOCTYPE svg PUBLIC "-//W3C//DTD SVG 1.1//EN" "http://www.w3.org/Graphics/SVG/1.1/DTD/svg11.dtd">
<svg version="1.1" id="Layer_1" xmlns="http://www.w3.org/2000/svg" xmlns:xlink="http://www.w3.org/1999/xlink" x="0px" y="0px"
	 viewBox="0 0 610 550" style="enable-background:new 0 0 610 550;" xml:space="preserve">
<style type="text/css">
	.st0{fill:#FFFFFF;}
</style>
<g>
	<g>
		<path class="st0" d="M437.5,60.6c-34.2,0-59.9,20.9-59.9,45.4c0,24.4,25.7,43.1,59.9,43.1c0.9,0,1.7-0.1,2.6-0.1V60.7
			C439.2,60.7,438.4,60.6,437.5,60.6 M273.5,38.8h-81.7c-9,0-16.3,7.3-16.3,16.3v231.8c0,9.1,7.3,16.3,16.3,16.3h105.7
			c-46.1-46.1-74-103.2-74-152.6C223.7,110.5,242,71.5,273.5,38.8 M368.7,103.2c0-28.5,23.4-52.9,57.3-64.2l0,0c-0.1,0-0.1,0-0.2,0
			c-0.7-0.1-1.4-0.2-2.2-0.2H420c-2.2,0-4.5-0.1-6.7-0.1s-4.5,0.1-6.7,0.1C313,41.2,233.5,92.3,233.5,155
			c0,64.2,83.3,116.3,179.8,116.3c9.1,0,18-0.5,26.7-1.3v-76.7C398.8,178.7,368.7,135.5,368.7,103.2"/>
		<path class="st0" d="M60.4,502.4c-5.3,5.3-14.2,8.9-23.1,8.9s-17.8-3.5-23.1-8.9C8.5,496.9,5,489.2,5,476.8v-65.3
			c0-12.5,3.5-20.1,9.1-25.7c5.3-5.3,14.2-8.9,23.1-8.9s17.8,3.5,23.1,8.9c5.6,5.6,9.1,13.2,9.1,25.2v2.3H55.3v-2.5
			c0-13.7-7.9-21.1-18-21.1c-9.9,0-18,6.9-18,21.1v66.8c0,14.2,8.1,21.1,18,21.1c10.2,0,18-7.4,18-21.1v-2.3h14.2v2.3
			C69.5,489.5,66,496.9,60.4,502.4"/>
		<path class="st0" d="M135.1,410.7c0-14.2-8.1-21.1-18.1-21.1c-9.9,0-18,6.9-18,21.1v66.8c0,14.2,8.1,21.1,18,21.1
			s18.1-6.9,18.1-21.1V410.7z M140.2,502.4c-5.3,5.3-14.2,8.9-23.1,8.9s-17.8-3.5-23.1-8.9c-5.6-5.6-9.2-13.2-9.2-25.7v-65.3
			c0-12.5,3.6-20.1,9.2-25.7c5.3-5.3,14.2-8.9,23.1-8.9s17.8,3.5,23.1,8.9c5.6,5.6,9.1,13.2,9.1,25.7v65.3
			C149.3,489.2,145.8,496.9,140.2,502.4"/>
		<path class="st0" d="M222.3,509.3v-98.6c0-14.2-8.1-21.1-18-21.1s-17.8,6.9-17.8,21.1v98.6h-14.2V378.9h14v10.4
			c1.5-2.8,4.8-6.4,7.1-7.9c4.1-2.8,8.9-4.6,14.7-4.6c8.6,0,15.2,3.3,20.6,8.9c5.1,5.3,7.9,12.4,7.9,25.4v98.1h-14.3V509.3z"/>
		<path class="st0" d="M313.3,502.4c-5.3,5.3-14.2,8.9-23.1,8.9s-17.8-3.5-23.1-8.9c-5.6-5.6-9.1-13.2-9.1-25.7v-65.3
			c0-12.5,3.5-20.1,9.1-25.7c5.3-5.3,14.2-8.9,23.1-8.9s17.8,3.5,23.1,8.9c5.6,5.6,9.1,13.2,9.1,25.2v2.3h-14.2v-2.5
			c0-13.7-7.9-21.1-18.1-21.1c-9.9,0-18,6.9-18,21.1v66.8c0,14.2,8.1,21.1,18,21.1c10.2,0,18.1-7.4,18.1-21.1v-2.3h14.2v2.3
			C322.4,489.5,318.8,496.9,313.3,502.4"/>
		<path class="st0" d="M388,410.9c0-14-7.6-21.4-18-21.4c-9.9,0-18.1,6.9-18.1,21.1v24.1H388V410.9z M393.1,502.4
			c-5.4,5.3-14.2,8.9-23.1,8.9s-17.8-3.5-23.1-8.9c-5.6-5.6-9.2-13.2-9.2-25.7v-65.3c0-12.5,3.5-20.1,9.2-25.7
			c5.3-5.3,14.2-8.9,23.1-8.9s17.8,3.5,23.1,8.9c5.6,5.6,9.1,13.2,9.1,25.7v35.1h-50.3v31c0,14.2,8.1,21.1,18.1,21.1
			c10.4,0,18-7.6,18-21.4v-2h14.2v2C402.2,489.2,398.7,496.9,393.1,502.4"/>
		<path class="st0" d="M463,390.3c-15.2,0-24.9,10-24.9,25.3v93.8h-14.2V378.9h14v13.7c1.3-2.8,4.1-6.1,6.1-7.9
			c5.8-5.3,13.7-6.2,22.4-6.2v11.7H463V390.3z"/>
		<path class="st0" d="M520.4,509.3c-20.3,0-32.5-11.4-32.5-33v-85.9h-15.8V379h15.8v-38.1h14.2V379h22.1v11.4h-22.1v86.1
			c0,13.2,7.6,20.1,19.3,20.1h3.8v12.7L520.4,509.3L520.4,509.3z"/>
		<path class="st0" d="M590.8,410.7c0-14.2-8.1-21.1-18.1-21.1c-9.9,0-18,6.9-18,21.1v66.8c0,14.2,8.1,21.1,18,21.1
			s18.1-6.9,18.1-21.1V410.7z M595.8,502.4c-5.3,5.3-14.2,8.9-23.1,8.9c-8.9,0-17.8-3.5-23.1-8.9c-5.6-5.6-9.1-13.2-9.1-25.7v-65.3
			c0-12.5,3.5-20.1,9.1-25.7c5.3-5.3,14.2-8.9,23.1-8.9c8.9,0,17.8,3.5,23.1,8.9c5.6,5.6,9.2,13.2,9.2,25.7v65.3
			C605,489.2,601.4,496.9,595.8,502.4"/>
	</g>
</g>
</svg>
