<svg xmlns="http://www.w3.org/2000/svg" xmlns:xlink="http://www.w3.org/1999/xlink" viewBox="0 0 142.77 94.11"><defs><style>.cls-1{fill:url(#Dégradé_sans_nom_17);}.cls-2{fill:#fff;}</style><linearGradient id="Dégradé_sans_nom_17" x1="71.39" x2="71.39" y2="94.58" gradientUnits="userSpaceOnUse"><stop offset="0" stop-color="#4690cd"/><stop offset="0.19" stop-color="#3e7ebf"/><stop offset="0.56" stop-color="#2a4e9a"/><stop offset="0.6" stop-color="#284996"/><stop offset="0.72" stop-color="#203a76"/><stop offset="0.91" stop-color="#132446"/><stop offset="1" stop-color="#0e1c34"/></linearGradient></defs><title>Fichier 2</title><g id="Calque_2" data-name="Calque 2"><g id="Calque_1-2" data-name="Calque 1"><path class="cls-1" d="M141.21,20.06a6.88,6.88,0,0,0-5.46-2.28H112.56c-.85-3.56-4.14-7.25-10.94-7.25-.33,0-.77,0-1.23.05h-4.1a5.9,5.9,0,0,0-.91-1.36,6,6,0,0,0-4.57-2h-3a6.12,6.12,0,0,0-5.6,3.33H62.42c-1.14-2.1-4-5.37-11.05-5.37A15.82,15.82,0,0,0,43.66,7c-1.28-1.44-3.65-3-7.84-3a15.22,15.22,0,0,0-2.26.17C31.7,1.45,28.37,0,24.16,0h-5a6.09,6.09,0,0,0-6.08,5.4l-1.71,14a5.87,5.87,0,0,0-.06.68A15,15,0,0,0,2.68,32.33L.16,53.14v.12C.07,54,0,54.72,0,55.35c0,5.38,3.4,11.84,12.94,13.89l8.82,9.19a6.88,6.88,0,0,0,4.81,2.26h.26a7.47,7.47,0,0,0,5.11-2.13l3.62-3.45A7,7,0,0,0,37.94,70a6.86,6.86,0,0,0-1.35-4.15,13.94,13.94,0,0,0,10,4H66.11a11.47,11.47,0,0,0-.67,2.6l-.25,1.93C65,76,64.14,86.63,64.1,87.08a6,6,0,0,0,1.48,4.82,6.1,6.1,0,0,0,4.64,2c.5,0,50,.24,52.32.24,10.79,0,12.49-7.5,12.76-9.79l.26-2.16c.07-.53.63-8,.65-8.26a10.21,10.21,0,0,0-.78-5.3A7.14,7.14,0,0,0,139.15,63l.59-4.62a6.7,6.7,0,0,0-1.48-5.54,6.89,6.89,0,0,0-5.47-2.28h-3.33l11-16.36.14-.23.06-.1a9.75,9.75,0,0,0,1.51-4.15l.53-4.14A6.69,6.69,0,0,0,141.21,20.06Z"/><path class="cls-2" d="M8,33c.6-5.17,4.69-10.29,16.31-10.29,10.23,0,14.5,4.45,14.5,9.21,0,.36-.06,1-.12,1.56L36.18,54.27c-.48,3.91-2.95,7.82-9.21,9.51l5,4.93a1.52,1.52,0,0,1-.06,2.47l-3.67,3.49a1.66,1.66,0,0,1-2.53.12L15.6,64.25c-7.22-1-10.23-4.81-10.23-8.91,0-.36.06-1,.12-1.56ZM28.6,35.25c.06-.54.12-1,.12-1.14,0-2.35-2.11-3.31-5.11-3.31-2.65,0-5.48,1.14-5.84,3.91L15.6,52c-.06.48-.12,1-.12,1.14,0,2.35,2.17,3.31,5.17,3.31s5.42-1.14,5.78-3.91Z"/><path class="cls-2" d="M55.85,61.37a14,14,0,0,1-9.08,3.19c-4.87,0-8.18-3-8.18-7.28a8.66,8.66,0,0,1,.06-1.08l2.53-20.4c.18-1.26.72-1.8,2-1.8h6.08c1,0,1.74.36,1.56,1.8L48.63,53.72a8.38,8.38,0,0,0-.06,1c0,1.14.42,1.56,2,1.56,2.29,0,4.69-1.44,6-2.35l2.23-18.17c.18-1.26.66-1.8,1.93-1.8h6.2c1.38,0,1.62.66,1.5,1.8L65.12,62.33c-.18,1.26-.72,1.75-2,1.75H57.35c-1.2,0-1.5-.42-1.5-1.75Z"/><path class="cls-2" d="M77.75,62.27c-.18,1.26-.66,1.81-1.93,1.81h-6.2c-1.26,0-1.68-.54-1.5-1.81l3.25-26.47c.12-1.26.66-1.8,1.93-1.8h6.2c1.26,0,1.68.54,1.5,1.8Z"/><path class="cls-2" d="M105.18,34c1.26,0,1.74.42,1.56,1.68L106.2,40a2.52,2.52,0,0,1-.48,1.32L92.79,56.25h10.83c1.26,0,1.81.42,1.62,1.68l-.54,4.39a1.76,1.76,0,0,1-2,1.75H82c-1.26,0-1.75-.48-1.56-1.75L81,57.94a2.23,2.23,0,0,1,.48-1.26L94.29,41.81H85.87c-1.26,0-1.81-.48-1.62-1.74l.54-4.39c.18-1.26.78-1.68,2-1.68Z"/><path class="cls-2" d="M135.74,23.16c1.26,0,1.8.42,1.62,1.68l-.54,4.21a4.81,4.81,0,0,1-.84,2.17L119.38,56h13.42c1.26,0,1.8.42,1.62,1.69l-.6,4.69c-.18,1.26-.72,1.75-2,1.75H108.13c-1.26,0-1.81-.48-1.62-1.75l.6-4.69a3.48,3.48,0,0,1,.72-1.62l16.67-24.73H113.18c-1.26,0-1.8-.48-1.62-1.75l.6-4.69c.18-1.26.72-1.68,2-1.68Z"/><path class="cls-2" d="M83,84.5c.71,0,.86.33.8.83l-.3,2.31a.87.87,0,0,1-1,.86H70.21c-.68,0-.83-.3-.77-.86l.65-5.41a2.73,2.73,0,0,1,2.16-2.63l6.59-2.51a1.63,1.63,0,0,0,1.09-1.54l.21-1.36c0-.24.06-.5.06-.59,0-1.06-.95-1.54-2.22-1.54s-2.4.56-2.57,1.92L75.27,75c-.09.62-.3.89-.92.89h-3c-.68,0-.83-.35-.77-.89l.24-1.83c.33-2.54,2.1-5.06,7.51-5.06,4.79,0,6.83,2.16,6.83,4.53,0,.21,0,.47-.06.77l-.27,2c-.41,3.13-1.83,4.32-3.46,4.91L76.1,82.29c-1.06.38-1.21.62-1.3,1.48l-.09.74Z"/><path class="cls-2" d="M86.13,73.21c.3-2.54,2.19-5.06,7.66-5.06,4.82,0,6.89,2.19,6.89,4.53,0,.18,0,.47-.06.77L99.37,83.68c-.3,2.54-2.22,5.06-7.69,5.06-4.82,0-6.86-2.16-6.86-4.52,0-.18,0-.53.06-.77Zm9.52,1.09c0-.27.06-.44.06-.56,0-1.12-.92-1.6-2.19-1.6s-2.42.56-2.6,1.92l-1,8.31c0,.24-.09.65-.09.74,0,1.15.95,1.63,2.25,1.63s2.37-.56,2.54-1.92Z"/><path class="cls-2" d="M111.41,68.15c.38-.06.83,0,.71.83L110.23,84.5h3.52c.62,0,.89.21.8.83l-.3,2.31a.86.86,0,0,1-1,.86H101.18c-.62,0-.86-.24-.77-.86l.3-2.31c.09-.62.35-.83,1-.83h3.67l1.45-11.68-3.76.53c-.56.09-.86-.12-.8-.74l.3-2.31c.06-.62.41-.86,1-.95Z"/><path class="cls-2" d="M117.54,73.21c.3-2.54,1.57-5.06,7-5.06,4.73,0,6.33,2.13,6.33,4.44a4.55,4.55,0,0,1,0,.62l-.24,2a3.61,3.61,0,0,1-2.4,3,3.11,3.11,0,0,1,2,2.75c0,.09,0,.33-.06.53L130,83.68c-.3,2.54-2,5.06-7.42,5.06-4.82,0-6.65-2.16-6.65-4.52a4,4,0,0,1,0-.53l.3-2.45c.18-1.54,1.15-2.4,2.69-3a3,3,0,0,1-1.63-2.63c0-.12,0-.35.06-.59Zm7.81,9c0-.21.06-.5.06-.56,0-1.09-.8-1.51-2.07-1.51s-2.25.5-2.42,1.86l-.12,1a2.62,2.62,0,0,0,0,.41c0,1,.8,1.51,2.07,1.51s2.28-.56,2.42-1.92Zm.71-8.28a3.09,3.09,0,0,0,0-.41c0-1.06-.65-1.51-1.8-1.51s-1.92.56-2.1,1.92l-.06.47a3,3,0,0,0,0,.41c0,1.06.56,1.51,1.72,1.51A1.93,1.93,0,0,0,126,74.39Z"/><path class="cls-2" d="M56.74,20c.71,0,.86.32.8.83l-.65,5.29c-.32,2.54-2,5.05-7.74,5.05-5,0-6.82-2.16-6.82-4.49,0-.21,0-.53.06-.8l1.24-10.22c.3-2.54,2-5.05,7.74-5.05,5,0,6.82,2.16,6.82,4.52,0,.18,0,.47-.06.8l-.09.8c-.06.62-.33.89-.95.89h-3c-.62,0-.83-.35-.74-.89l0-.21a3,3,0,0,0,0-.47c0-1-.86-1.45-2.22-1.45s-2.57.56-2.75,1.92L47.35,25a4.93,4.93,0,0,0-.06.59c0,1.09.83,1.57,2.25,1.57,1.6,0,2.57-.56,2.72-1.92L52.4,24H50c-.62,0-.86-.27-.77-.86l.3-2.3c.06-.62.35-.83,1-.83Z"/><path class="cls-2" d="M69.57,16.78l-.3,2.3c-.09.62-.35.8-1,.89a8.34,8.34,0,0,0-4.17,1.63l-1,8.45c-.09.62-.33.89-.95.89h-3c-.62,0-.83-.27-.74-.89l1.59-13c.09-.62.33-.86.95-.86h2.84c.62,0,.77.24.77.86l0,.83a5.71,5.71,0,0,1,4.31-1.92C69.39,15.92,69.66,16.16,69.57,16.78Z"/><path class="cls-2" d="M90,25.55a3.84,3.84,0,0,0,0,.5c0,.74.47,1,1.71,1h.71c.65,0,.86.35.8.89L93,30.07a.84.84,0,0,1-1,.86H90.52c-3.87,0-5.35-1.21-5.35-3.66,0-.3,0-.62.06-.95L86,19.91H84.7c-.65,0-.8-.3-.74-.86l.21-1.8c.06-.62.35-.77,1-.86l1.3-.18h0l.32-2.69a.85.85,0,0,1,1-.89h3c.62,0,.77.33.71.89l-.32,2.69h2.39c.65,0,.83.32.77.83l-.24,2c-.06.62-.38.86-1,.86H90.72Z"/><path class="cls-2" d="M107,23.81a.79.79,0,0,1-.92.8H98.94l-.15,1.27a5.2,5.2,0,0,0-.06.74c0,.74.5,1.06,1.62,1.06s1.8-.44,1.92-1.15l0-.18a.85.85,0,0,1,1-.86h2.54c.62,0,.83.29.74.86l0,.21c-.41,2.81-1.8,4.61-6.47,4.61-4,0-6-1.57-6-4a5.13,5.13,0,0,1,0-.59l.74-6c.35-2.81,2.25-4.61,6.79-4.61,3.87,0,5.82,1.54,5.82,4a4.4,4.4,0,0,1,0,.62Zm-7.71-2.22h3.57L103,21a3,3,0,0,0,0-.47c0-.71-.53-1.09-1.65-1.09s-1.8.44-1.92,1.33Z"/><path class="cls-2" d="M17.23,20.83c-.34,0-.57-.2-.5-.68L18.46,6.06c.07-.48.27-.68.75-.68h5c4,0,5.54,1.7,5.54,3.52,0,.11,0,.57-.07.73l-.89,7.32c-.23,2-1.66,3.88-6.09,3.88Zm4.7-12.38-1.16,9.32h2.09c1.11,0,2.07-.43,2.2-1.48l.75-6a5.32,5.32,0,0,0,0-.54c0-.89-.73-1.25-1.89-1.25Z"/><path class="cls-2" d="M40,15.35a.61.61,0,0,1-.7.61H33.75l-.11,1a4,4,0,0,0,0,.57c0,.57.39.82,1.25.82s1.39-.34,1.48-.89l0-.14a.66.66,0,0,1,.75-.66h2c.48,0,.64.23.57.66l0,.16c-.32,2.16-1.39,3.54-5,3.54C31.52,21,30,19.8,30,17.92a4,4,0,0,1,0-.45l.57-4.64c.27-2.16,1.73-3.54,5.23-3.54,3,0,4.48,1.18,4.48,3.07a3.38,3.38,0,0,1,0,.48ZM34,13.65h2.75l.07-.48a2.32,2.32,0,0,0,0-.36c0-.54-.41-.84-1.27-.84s-1.39.34-1.48,1Z"/><path class="cls-2" d="M76.84,15.92c-4.61,0-6.85,1.8-7.21,4.61l-.74,6a4.07,4.07,0,0,0,0,.5c0,2.51,2.33,4.11,6.38,4.11,4.67,0,6.82-1.8,7.18-4.61l.74-6a4.62,4.62,0,0,0,0-.56C83.19,17.49,80.85,15.92,76.84,15.92Zm1.54,11.25L76,25.67l-2.6,1.15L74,24.06l-1.9-2.12L75,21.72l1.43-2.46,1.08,2.63,2.78.6-2.17,1.84Z"/></g></g></svg>