<svg xmlns="http://www.w3.org/2000/svg" xmlns:xlink="http://www.w3.org/1999/xlink" viewBox="0 0 146.63 88.9"><defs><style>.cls-1{fill:url(#Dégradé_sans_nom_17);}.cls-2{fill:#fff;}</style><linearGradient id="Dégradé_sans_nom_17" x1="73.32" y1="-2.65" x2="73.32" y2="89.85" gradientUnits="userSpaceOnUse"><stop offset="0" stop-color="#4690cd"/><stop offset="0.19" stop-color="#3e7ebf"/><stop offset="0.56" stop-color="#2a4e9a"/><stop offset="0.6" stop-color="#284996"/><stop offset="0.72" stop-color="#203a76"/><stop offset="0.91" stop-color="#132446"/><stop offset="1" stop-color="#0e1c34"/></linearGradient></defs><title>Fichier 1</title><g id="Calque_2" data-name="Calque 2"><g id="Calque_1-2" data-name="Calque 1"><path class="cls-1" d="M144.91,14.55A7.51,7.51,0,0,0,139,12.06H118.2l.55-4.48V7.48A6.59,6.59,0,0,0,112.08,0h-2.92a6.8,6.8,0,0,0-6.78,5.52l-14.19.12H62.81C61,2.6,57.37.31,51.61.31,40.28.31,38.5,8.09,38.22,10.47l-.48,3.93A26.28,26.28,0,0,0,25,11.58c-6.67,0-12,1.49-15.9,4.42A16,16,0,0,0,2.69,27.18L.16,48v.13c-.08.77-.15,1.5-.15,2.16C0,56,3.53,62.56,13.24,64.71L22,73.81a7.46,7.46,0,0,0,5.47,2.4A8.11,8.11,0,0,0,32.95,74l0,0,0,0,3.65-3.47A7.72,7.72,0,0,0,39.19,65a7.25,7.25,0,0,0-.45-2.64,14.88,14.88,0,0,0,9.45,3.15l22.16-.06L70,68.51l-1.1,12.65v.09a6.6,6.6,0,0,0,6.74,7.49s49.24.19,51.45.16c4-.05,7.13-.92,9.49-2.89a11.08,11.08,0,0,0,3.89-7.4L143,58v0l.6-4.66a7.29,7.29,0,0,0-1.63-6A7.51,7.51,0,0,0,136,44.85h-2.16L144.2,29.47l.09-.13.08-.13.06-.1A10.51,10.51,0,0,0,146,24.7l.53-4.15A7.29,7.29,0,0,0,144.91,14.55Z"/><path class="cls-2" d="M8.48,27.87c.6-5.17,4.69-10.29,16.3-10.29,10.23,0,14.5,4.45,14.5,9.21,0,.36-.06,1-.12,1.56L36.64,49.17c-.48,3.91-2.95,7.82-9.21,9.51l5,4.93a1.52,1.52,0,0,1-.06,2.47L28.7,69.56a1.66,1.66,0,0,1-2.53.12L16.06,59.15c-7.22-1-10.23-4.81-10.23-8.9,0-.36.06-1,.12-1.56Zm20.58,2.29c.06-.54.12-1,.12-1.14,0-2.35-2.11-3.31-5.11-3.31-2.65,0-5.48,1.14-5.84,3.91L16.06,46.88c-.06.48-.12,1-.12,1.14,0,2.35,2.17,3.31,5.17,3.31s5.42-1.14,5.78-3.91Z"/><path class="cls-2" d="M57.11,56.27A14,14,0,0,1,48,59.46c-4.87,0-8.18-3-8.18-7.28a8.67,8.67,0,0,1,.06-1.08l2.53-20.4c.18-1.26.72-1.8,2-1.8h6.08c1,0,1.74.36,1.56,1.8L49.89,48.63a8.4,8.4,0,0,0-.06,1c0,1.14.42,1.56,2,1.56,2.29,0,4.69-1.44,6-2.35L60,30.7c.18-1.26.66-1.8,1.93-1.8h6.2c1.38,0,1.62.66,1.5,1.8L66.38,57.23a1.71,1.71,0,0,1-2,1.74H58.62c-1.2,0-1.5-.42-1.5-1.74Z"/><path class="cls-2" d="M80.06,57.17c-.18,1.26-.66,1.8-1.93,1.8h-6.2c-1.26,0-1.68-.54-1.5-1.8L73.69,30.7c.12-1.26.66-1.8,1.93-1.8h6.2c1.26,0,1.68.54,1.5,1.8Z"/><path class="cls-2" d="M108.1,28.89c1.26,0,1.74.42,1.56,1.68l-.54,4.33a2.53,2.53,0,0,1-.48,1.32L95.71,51.15h10.83c1.26,0,1.81.42,1.62,1.68l-.54,4.39a1.76,1.76,0,0,1-2,1.74H84.94c-1.26,0-1.75-.48-1.56-1.74l.54-4.39a2.23,2.23,0,0,1,.48-1.26L97.21,36.71H88.79c-1.26,0-1.81-.48-1.62-1.75l.54-4.39c.18-1.26.78-1.68,2-1.68Z"/><path class="cls-2" d="M138.81,18.06c1.26,0,1.81.42,1.63,1.68L139.89,24a4.81,4.81,0,0,1-.84,2.17L122.44,50.85h13.42c1.26,0,1.81.42,1.63,1.68l-.6,4.69a1.71,1.71,0,0,1-2,1.74H111.19c-1.26,0-1.81-.48-1.62-1.74l.6-4.69a3.48,3.48,0,0,1,.72-1.62l16.67-24.73H116.25c-1.26,0-1.8-.48-1.62-1.75l.6-4.69c.18-1.26.72-1.68,2-1.68Z"/><path class="cls-2" d="M88.18,78.74c.71,0,.86.33.8.83l-.3,2.31a.87.87,0,0,1-1,.86H75.44c-.68,0-.83-.3-.77-.86l.65-5.41a2.73,2.73,0,0,1,2.16-2.63l6.59-2.51a1.63,1.63,0,0,0,1.09-1.54l.21-1.36c0-.24.06-.5.06-.59,0-1.06-.95-1.54-2.22-1.54s-2.4.56-2.57,1.92l-.15,1.06c-.09.62-.3.89-.92.89h-3c-.68,0-.83-.35-.77-.89L76,67.44c.33-2.54,2.1-5.06,7.51-5.06,4.79,0,6.83,2.16,6.83,4.53,0,.21,0,.47-.06.77l-.27,2c-.41,3.13-1.83,4.32-3.46,4.91l-5.23,1.92c-1.06.38-1.21.62-1.3,1.48l-.09.74Z"/><path class="cls-2" d="M91.35,67.44c.3-2.54,2.19-5.06,7.66-5.06,4.82,0,6.89,2.19,6.89,4.53,0,.18,0,.47-.06.77L104.6,77.91c-.3,2.54-2.22,5.06-7.69,5.06C92.09,83,90,80.81,90,78.44c0-.18,0-.53.06-.77Zm9.52,1.09c0-.27.06-.44.06-.56,0-1.12-.92-1.6-2.19-1.6s-2.42.56-2.6,1.92l-1,8.31c0,.24-.09.65-.09.74C95,78.5,96,79,97.26,79s2.37-.56,2.54-1.92Z"/><path class="cls-2" d="M116.26,62.39c.38-.06.83,0,.71.83l-1.89,15.53h3.52c.62,0,.89.21.8.83l-.3,2.31a.86.86,0,0,1-1,.86H106c-.62,0-.86-.24-.77-.86l.3-2.31c.09-.62.35-.83,1-.83h3.67l1.45-11.68-3.76.53c-.56.09-.86-.12-.8-.74l.3-2.31c.06-.62.41-.86,1-.95Z"/><path class="cls-2" d="M121.88,67.44c.3-2.54,1.57-5.06,7-5.06,4.73,0,6.33,2.13,6.33,4.44a4.55,4.55,0,0,1,0,.62l-.24,2a3.61,3.61,0,0,1-2.4,3,3.11,3.11,0,0,1,2,2.75c0,.09,0,.33-.06.53l-.27,2.22c-.3,2.54-2,5.06-7.42,5.06-4.82,0-6.65-2.16-6.65-4.52a4,4,0,0,1,0-.53l.3-2.45c.18-1.54,1.15-2.4,2.69-3a3,3,0,0,1-1.63-2.63c0-.12,0-.35.06-.59Zm7.81,9c0-.21.06-.5.06-.56,0-1.09-.8-1.51-2.07-1.51s-2.25.5-2.42,1.86l-.12,1a2.62,2.62,0,0,0,0,.41c0,1,.8,1.51,2.07,1.51s2.28-.56,2.42-1.92Zm.71-8.28a3.09,3.09,0,0,0,0-.41c0-1.06-.65-1.51-1.8-1.51s-1.92.56-2.1,1.92l-.06.47a3,3,0,0,0,0,.41c0,1.06.56,1.51,1.72,1.51a1.93,1.93,0,0,0,2.19-1.92Z"/><path class="cls-2" d="M56.61,15.34c.68,0,.82.31.77.79l-.62,5.08c-.31,2.44-2,4.85-7.44,4.85-4.82,0-6.56-2.07-6.56-4.31,0-.2,0-.51.06-.77L44,11.17c.28-2.44,2-4.85,7.44-4.85,4.82,0,6.56,2.07,6.56,4.34,0,.17,0,.45-.06.77l-.08.77c-.06.6-.31.85-.91.85H54c-.6,0-.79-.34-.71-.85l0-.2a3,3,0,0,0,0-.46c0-.94-.82-1.39-2.13-1.39s-2.47.54-2.64,1.85l-1,8.17a4.76,4.76,0,0,0-.06.57c0,1,.79,1.5,2.16,1.5,1.53,0,2.47-.54,2.61-1.84l.14-1.22H50.11c-.6,0-.82-.25-.74-.82l.28-2.21c.06-.6.34-.79.94-.79Z"/><path class="cls-2" d="M68.93,12.24l-.28,2.21c-.09.6-.34.77-1,.85a8,8,0,0,0-4,1.56l-1,8.12c-.09.6-.31.85-.91.85H58.85c-.6,0-.79-.26-.71-.85l1.53-12.52c.09-.6.31-.82.91-.82h2.72c.6,0,.74.23.74.82l0,.79a5.49,5.49,0,0,1,4.14-1.84C68.76,11.42,69,11.65,68.93,12.24Z"/><path class="cls-2" d="M88,11.65c.6,0,.74.23.74.82V13a7,7,0,0,1,4.43-1.53c2.24,0,3.86,1.42,3.86,3.46a6.63,6.63,0,0,1-.06.74L95.85,25c-.08.6-.34.85-.94.85H92.05c-.48,0-.82-.17-.74-.85l1-8.23a6.05,6.05,0,0,0,.06-.65c0-.57-.23-.79-1-.79a5.82,5.82,0,0,0-3,1.13L87.4,25c-.09.6-.31.85-.91.85H83.57c-.51,0-.79-.2-.71-.85l1.53-12.52c.06-.6.31-.82.91-.82Z"/><path class="cls-2" d="M106,24.5a6.63,6.63,0,0,1-4.43,1.56c-2.5,0-3.86-1.36-3.86-3.58,0-.26,0-.51.06-.79l.74-5.9c.34-2.7,1.59-4.37,4.6-4.37a6.67,6.67,0,0,1,4.2,1.48l.74-6c.09-.6.31-.85.91-.85h2.92c.62,0,.77.31.71.85L110.41,25c-.09.6-.34.85-.94.85h-2.72c-.6,0-.71-.26-.71-.85Zm-3.58-3.72a5.88,5.88,0,0,0-.06.6c0,.43.17.79,1,.79a6.16,6.16,0,0,0,3-1.16l.57-4.54a4.74,4.74,0,0,0-2.67-1.16c-1.05,0-1.16.62-1.25,1.19Z"/><path class="cls-2" d="M81.7,11.65H78.83c-.6,0-.74.28-.91.85l-.11.4a6.47,6.47,0,0,0-4.2-1.48c-3,0-4.26,1.67-4.6,4.37l-.74,5.9c0,.28-.06.54-.06.77,0,2.24,1.39,3.6,3.86,3.6A6.91,6.91,0,0,0,76.5,24.5V25c0,.63.23.85.71.85h2.72c.6,0,.85-.26.94-.85L82.41,12.5C82.49,11.85,82.12,11.65,81.7,11.65Zm-3.48,8.18L78.76,23l-2.82-1.47L73.13,23l.53-3.13-2.28-2.22,3.14-.46,1.4-2.85,1.41,2.85,3.15.45Z"/></g></g></svg>