<?xml version="1.0" encoding="utf-8"?>
<!-- Generator: Adobe Illustrator 22.0.0, SVG Export Plug-In . SVG Version: 6.00 Build 0)  -->
<!DOCTYPE svg PUBLIC "-//W3C//DTD SVG 1.1//EN" "http://www.w3.org/Graphics/SVG/1.1/DTD/svg11.dtd">
<svg version="1.1" id="Layer_1" xmlns="http://www.w3.org/2000/svg" xmlns:xlink="http://www.w3.org/1999/xlink" x="0px" y="0px"
	 viewBox="0 0 400 220" style="enable-background:new 0 0 400 220;" xml:space="preserve">
<style type="text/css">
	.st0{fill:#FFFFFF;}
</style>
<title>Fichier 3</title>
<g id="Calque_2">
	<g id="Calque_1-2">
		<path class="st0" d="M388.8,3.7H36.4c0,0-10.1,0-10.1,10v69.9h-0.6C11.5,83.6,0,95.1,0,109.3s11.5,25.8,25.8,25.8h0.6v71.2
			c0,0,0,10,10.1,10h352.4c0,0,10.1,0,10.1-10V13.7C398.9,13.7,399,3.7,388.8,3.7z M25.8,130.8c-11.9-0.1-21.5-9.8-21.4-21.7
			s9.8-21.4,21.7-21.3c11.8,0.1,21.3,9.7,21.3,21.5C47.4,121.2,37.7,130.9,25.8,130.8L25.8,130.8z"/>
		<path class="st0" d="M25.6,97.3c-3.1-0.1-5.8,1.9-6.5,4.9l4.2,1.1c0.2-1.2,1.2-2.1,2.4-2c1.2-0.2,2.2,0.7,2.4,1.8
			c0,0.1,0,0.1,0,0.2c0,2.6-5.3,3.4-5.3,7.6c0.1,1.3,0.6,2.6,1.5,3.6l3.3-2.3c-0.4-0.3-0.6-0.7-0.6-1.2c0-2,5.3-2.9,5.3-7.8
			C32.3,99.8,29.4,97.3,25.6,97.3z"/>
		<path class="st0" d="M25.3,115.4c-1.6,0-2.8,1.3-2.7,2.9c0,1.6,1.3,2.8,2.9,2.7c1.5,0,2.7-1.3,2.7-2.8s-1.2-2.8-2.8-2.8
			C25.4,115.4,25.4,115.4,25.3,115.4z"/>
	</g>
</g>
</svg>
