<?xml version="1.0" encoding="utf-8"?>
<!-- Generator: Adobe Illustrator 22.0.0, SVG Export Plug-In . SVG Version: 6.00 Build 0)  -->
<!DOCTYPE svg PUBLIC "-//W3C//DTD SVG 1.1//EN" "http://www.w3.org/Graphics/SVG/1.1/DTD/svg11.dtd">
<svg version="1.1" id="Layer_1" xmlns="http://www.w3.org/2000/svg" xmlns:xlink="http://www.w3.org/1999/xlink" x="0px" y="0px"
	 viewBox="0 0 1000 1000" style="enable-background:new 0 0 1000 1000;" xml:space="preserve">
<style type="text/css">
	.st0{opacity:0.1;}
	.st1{fill:#FFFFFF;}
</style>
<g class="st0">
	<g>
		<path class="st1" d="M375.6,445.8c-28.1,0-58.9,9.1-88.8,34.4c-37.7,36.5-90.8,98.8-75.8,246.2c12.6,68.6,33.6,160.3,147.4,273.7
			h107.4c-114.7-71.2-154.5-145.8-183.6-202.5c-57.4-142.8-20.5-217.2,6.8-262.1c35-45.8,73.3-60.7,111-60.7
			c34.9,0,69.3,12.7,100,25.3c-29.9-21.8-58.2-42.3-93.9-50.7C396.5,447.1,386.3,445.8,375.6,445.8"/>
		<path class="st1" d="M446.4,496.4c-54.4,0-109.1,15.7-141,91.8c-15.7,50.2-29.2,128.6,49,243.4c42.9,55.2,106.1,122.4,248.2,168.5
			h395.4c0.7-0.2,1.4-0.3,2.1-0.5v-70.4c-89.9,30.8-166.8,41.3-232.4,41.3c-50,0-93.5-6.1-131.3-14
			c-104.5-24.4-168.4-68.4-212.4-109.6c-86-85.4-95.2-162.2-90.4-213.3C349.9,526,431.5,510.6,500,500
			C482.7,498.2,464.6,496.4,446.4,496.4"/>
		<path class="st1" d="M500,500c-63.3,28.2-137.8,64.7-125.7,172.5c8,50.5,37.9,121.2,137.9,181c50.3,28,119.4,54.1,218,55.7
			c0.6,0,1.2,0,1.8,0c73,0,162.2-13.6,268-62.7v-97.1c-42.2,28.7-81.6,48.2-117.9,62.6c-72.5,26.8-132.1,36.2-182,36.2
			c-30.9,0-58.1-3.6-82.4-8.9c-124.2-30.7-172.8-92-194.3-139.9C382.9,597.7,445.8,543.2,500,500"/>
		<path class="st1" d="M500,500c-21.8,29.9-42.3,58.2-50.7,93.9c-8.1,35-4,78.1,30.9,119.2c32.2,33.2,84.4,78.4,197.2,78.4
			c15.2,0,31.5-0.8,49-2.6c68.6-12.6,160.3-33.6,273.7-147.4V534.2c-71.2,114.7-145.8,154.5-202.5,183.6
			c-55.2,22.2-100.2,30.3-137.2,30.3c-58.7,0-97.4-20.4-124.9-37.1C447.2,643.7,473.8,564,500,500"/>
		<path class="st1" d="M999.5,0h-70.4c54.2,158.4,45.5,276.4,27.3,363.7c-24.4,104.5-68.4,168.4-109.6,212.4
			c-74.1,74.7-141.9,91.5-191.8,91.5c-7.6,0-14.7-0.4-21.4-1C526,650.1,510.6,568.5,500,500c-7.3,68.8-13.4,152.1,88.2,194.6
			c19.8,6.2,44.1,12.1,73.2,12.1c44.6,0,100.7-13.7,170.2-61.1c55.2-42.9,122.4-106.1,168.5-248.2V2.1C999.8,1.4,999.6,0.7,999.5,0"
			/>
		<path class="st1" d="M846.5,0h-97.1c28.7,42.2,48.2,81.6,62.6,117.9c43.4,117.4,41.2,200.9,27.3,264.4
			c-30.7,124.2-92,172.8-139.9,194.3c-22.7,9-43,12.9-61.4,12.9c-64.1,0-104.5-47.4-138.1-89.5c26.1,58.7,59.4,127,150,127
			c7.1,0,14.6-0.4,22.5-1.3c50.5-8,121.2-37.9,181-137.9c28-50.3,54.1-119.4,55.7-218C909.4,196.4,896,106.7,846.5,0"/>
		<path class="st1" d="M641.6,0H534.2c114.7,71.2,154.5,145.8,183.6,202.5c57.4,142.8,20.5,217.2-6.8,262.1
			c-35,45.8-73.3,60.7-111,60.7c-34.9,0-69.3-12.7-100-25.3c29.9,21.8,58.2,42.3,93.9,50.7c9.6,2.2,19.8,3.5,30.4,3.5
			c28.1,0,58.9-9.1,88.8-34.4c37.7-36.5,90.8-98.8,75.8-246.2C776.4,205.1,755.4,113.4,641.6,0"/>
		<path class="st1" d="M397.4,0H2.1C1.4,0.2,0.7,0.3,0,0.5v70.4c89.9-30.8,166.8-41.3,232.4-41.3c50,0,93.5,6.1,131.3,14
			c104.5,24.4,168.4,68.4,212.4,109.6c86,85.4,95.2,162.2,90.4,213.3C650.1,474,568.5,489.4,500,500c17.3,1.8,35.4,3.6,53.7,3.6
			c54.4,0,109.1-15.7,141-91.8c15.7-50.2,29.2-128.6-49-243.4C602.7,113.3,539.5,46.1,397.4,0"/>
		<path class="st1" d="M268,90.8c-73,0-162.2,13.6-268,62.7v97.1c42.2-28.7,81.6-48.2,117.9-62.6c72.5-26.8,132.1-36.2,182-36.2
			c30.9,0,58.1,3.6,82.4,8.9c124.2,30.7,172.8,92,194.3,139.9C617.1,402.3,554.2,456.8,500,500c63.3-28.2,137.8-64.7,125.7-172.5
			c-8-50.5-37.9-121.2-137.9-181c-50.3-28-119.4-54.1-218-55.7C269.2,90.8,268.6,90.8,268,90.8"/>
		<path class="st1" d="M322.6,208.4c-15.2,0-31.5,0.8-49,2.6C205.1,223.6,113.4,244.6,0,358.4v107.4
			c71.2-114.7,145.7-154.5,202.5-183.6c55.2-22.2,100.2-30.3,137.2-30.3c58.7,0,97.4,20.4,124.9,37.1c88.2,67.4,61.6,147,35.4,211.1
			c21.8-29.9,42.3-58.2,50.7-93.9c8.1-35,4-78.1-30.9-119.2C487.7,253.6,435.5,208.4,322.6,208.4"/>
		<path class="st1" d="M338.6,293.3c-44.6,0-100.7,13.7-170.2,61.1C113.3,397.3,46.1,460.5,0,602.6v395.4c0.2,0.7,0.3,1.4,0.5,2.1
			h70.4C16.7,841.6,25.5,723.6,43.6,636.3c24.4-104.5,68.4-168.4,109.6-212.4c74.1-74.7,141.9-91.5,191.8-91.5
			c7.6,0,14.7,0.4,21.4,1C474,349.9,489.4,431.5,500,500c7.3-68.8,13.4-152-88.2-194.6C392,299.2,367.8,293.3,338.6,293.3"/>
		<path class="st1" d="M350,373c-7.1,0-14.6,0.4-22.5,1.3c-50.5,8-121.2,37.9-181,137.9c-28,50.3-54.1,119.4-55.7,218
			c-0.2,73.3,13.2,163.1,62.7,269.7h97.1c-28.7-42.2-48.2-81.6-62.6-117.9c-43.4-117.4-41.2-200.9-27.3-264.4
			c30.7-124.2,92-172.8,139.9-194.3c22.7-9,43-12.9,61.4-12.9c64.1,0,104.5,47.4,138.1,89.5C473.9,441.3,440.6,373,350,373"/>
	</g>
</g>
</svg>
