<?xml version="1.0" encoding="utf-8"?>
<!-- Generator: Adobe Illustrator 22.0.0, SVG Export Plug-In . SVG Version: 6.00 Build 0)  -->
<!DOCTYPE svg PUBLIC "-//W3C//DTD SVG 1.1//EN" "http://www.w3.org/Graphics/SVG/1.1/DTD/svg11.dtd">
<svg version="1.1" id="Layer_1" xmlns="http://www.w3.org/2000/svg" xmlns:xlink="http://www.w3.org/1999/xlink" x="0px" y="0px"
	 viewBox="0 0 330 330" style="enable-background:new 0 0 330 330;" xml:space="preserve">
<style type="text/css">
	.st0{fill:#FFFFFF;}
	.st1{fill:#FF0000;}
</style>
<g>
	<g>
		<path class="st0" d="M165,327.5C75.4,327.5,2.5,254.6,2.5,165S75.4,2.5,165,2.5S327.5,75.4,327.5,165S254.6,327.5,165,327.5z
			 M165,32C91.6,32,32,91.6,32,165s59.6,133,133,133s133-59.6,133-133S238.4,32,165,32z"/>
	</g>
</g>
<polygon class="st1" points="249.1,95.1 234.9,80.9 165,150.9 95.1,80.9 80.9,95.1 150.9,165 80.9,234.9 95.1,249.1 165,179.1 
	234.9,249.1 249.1,234.9 179.1,165 "/>
</svg>
